<?xml version="1.0" standalone="no"?>
<!DOCTYPE svg PUBLIC "-//W3C//DTD SVG 20010904//EN"
 "http://www.w3.org/TR/2001/REC-SVG-20010904/DTD/svg10.dtd">
<svg version="1.0" xmlns="http://www.w3.org/2000/svg"
 width="3000.000000pt" height="2000.000000pt" viewBox="0 0 3000.000000 2000.000000"
 preserveAspectRatio="xMidYMid meet">

<g transform="translate(0.000000,2000.000000) scale(0.100000,-0.100000)"
fill="#000000" stroke="none">
<path d="M11580 15781 c-74 -23 -128 -67 -355 -290 -563 -553 -803 -759 -1140
-980 -126 -83 -233 -140 -519 -276 -215 -103 -336 -294 -336 -532 0 -154 -25
-93 423 -1033 l174 -365 69 -6 c65 -7 132 -27 199 -63 55 -29 65 -23 65 42 0
31 5 197 10 367 l11 310 27 19 c15 11 61 54 103 96 60 61 85 96 121 171 62
126 73 178 73 339 -1 142 -18 245 -70 421 -14 45 -25 86 -25 91 0 11 132 76
302 149 366 157 773 261 1180 304 203 21 205 21 262 -20 l49 -34 37 29 c89 71
216 226 290 354 99 173 152 330 153 456 1 99 -16 152 -64 205 -56 60 -108 79
-206 73 -100 -6 -177 -42 -305 -145 -51 -41 -122 -92 -158 -113 -65 -37 -155
-80 -171 -80 -4 0 10 37 31 83 21 45 43 108 50 140 25 122 -26 244 -117 283
-34 15 -122 17 -163 5z"/>
<path d="M15990 15058 c-2360 -858 -3184 -1158 -3189 -1164 -2 -2 8 -43 23
-91 67 -221 95 -456 76 -657 -36 -401 -209 -702 -477 -832 l-72 -35 19 -52
c25 -68 327 -897 436 -1197 47 -129 264 -725 482 -1324 380 -1044 395 -1089
377 -1102 -40 -30 -101 -37 -275 -36 -222 3 -263 13 -334 85 -39 40 -61 74
-91 147 l-40 94 -64 19 c-49 14 -74 29 -110 65 -55 55 -64 83 -87 261 -8 69
-17 128 -20 133 -3 4 -14 8 -25 8 -30 0 -91 34 -127 71 -31 32 -87 150 -98
209 -4 16 -8 30 -10 30 -2 0 -39 -12 -81 -26 -72 -24 -87 -26 -191 -21 -63 3
-115 7 -118 9 -6 6 193 853 206 879 25 49 64 92 107 119 l43 28 -155 57 c-114
42 -155 62 -155 74 0 9 11 53 24 99 13 45 19 82 14 82 -6 0 -87 -25 -182 -55
-94 -30 -204 -61 -244 -70 -179 -37 -369 0 -513 100 -35 25 -97 60 -137 80
-40 19 -111 57 -156 84 -45 28 -104 59 -130 70 l-47 21 28 -51 c50 -90 151
-215 242 -300 134 -127 285 -208 471 -255 115 -29 375 -27 489 4 46 13 85 21
88 19 7 -8 -68 -259 -96 -322 -113 -249 -347 -445 -616 -516 -105 -28 -317
-31 -418 -6 -328 81 -588 320 -687 632 -16 49 -24 106 -27 190 -6 141 13 239
72 363 l35 74 -28 -6 c-36 -8 -1175 -206 -1184 -206 -3 0 -21 -26 -39 -57 -64
-113 -263 -409 -332 -496 -38 -48 -68 -89 -66 -91 2 -2 45 -29 95 -59 50 -31
97 -63 103 -71 11 -13 17 -10 43 20 87 98 234 105 329 16 34 -31 55 -73 136
-267 85 -202 96 -237 97 -290 0 -39 -6 -72 -17 -93 -42 -78 -128 -127 -211
-120 -25 2 -46 3 -46 2 0 0 52 -136 115 -302 152 -400 152 -398 3 -596 l-75
-99 64 -171 c34 -94 98 -265 141 -381 l77 -209 75 -12 c265 -42 440 -242 440
-503 0 -102 -18 -171 -66 -257 -39 -71 -134 -164 -205 -199 -279 -142 -627 5
-719 303 -35 113 -25 276 24 370 l16 30 -114 194 c-62 106 -157 268 -211 360
-54 93 -100 168 -104 168 -3 0 -23 4 -43 9 l-38 9 -187 -272 c-102 -149 -445
-646 -762 -1105 l-575 -835 -63 -235 c-91 -336 -168 -650 -189 -766 -23 -131
-23 -356 0 -485 32 -182 107 -382 198 -530 l34 -55 -42 -90 c-77 -166 -140
-398 -164 -600 -5 -49 -10 -284 -10 -520 l0 -430 108 -67 c468 -289 985 -531
1512 -709 598 -202 1105 -308 1765 -369 188 -18 723 -24 930 -11 440 27 817
84 1210 181 184 45 513 142 540 158 8 5 -73 293 -261 927 -151 506 -280 944
-288 974 l-14 54 33 46 c109 155 198 338 234 482 62 246 43 488 -58 737 -95
237 -130 401 -138 649 -10 311 11 419 177 903 61 179 246 726 411 1215 166
490 305 894 309 899 5 5 126 -20 282 -58 150 -36 306 -73 346 -83 l72 -17 99
-190 c589 -1145 1455 -1984 2421 -2348 58 -22 345 -109 638 -193 l533 -154
105 37 c74 26 103 41 99 50 -16 44 -27 170 -22 262 18 307 174 606 331 635 45
9 108 -10 140 -41 52 -53 57 -137 15 -251 -31 -83 -33 -107 -15 -145 20 -41
63 -68 108 -68 32 1 38 9 238 306 113 168 207 310 208 315 6 15 -52 10 -76 -7
-12 -8 -27 -34 -33 -60 -7 -28 -27 -62 -54 -92 -39 -43 -47 -47 -89 -47 -38 0
-51 5 -76 31 -69 68 -57 206 32 363 106 189 255 303 352 271 97 -32 101 -124
10 -237 -36 -44 -44 -86 -21 -117 12 -16 18 -8 65 76 28 51 74 141 101 199 55
118 155 378 148 385 -14 14 -63 -15 -100 -58 -82 -97 -181 -127 -246 -73 -88
75 -58 212 79 358 100 107 253 208 357 236 l41 11 16 90 c59 318 81 623 72
1005 -5 252 -25 539 -37 548 -2 2 -35 12 -74 22 -210 56 -458 242 -531 400
-57 120 -1 235 114 235 51 0 96 -22 176 -84 67 -53 115 -61 159 -26 51 40 52
72 9 242 -22 84 -53 198 -70 253 -29 93 -36 104 -89 157 l-58 57 -54 -27
c-120 -59 -143 -116 -71 -174 104 -82 109 -192 12 -229 -59 -22 -146 15 -235
100 -176 167 -246 389 -144 451 18 11 41 20 52 20 36 0 83 -38 119 -95 57 -88
89 -91 159 -16 74 79 74 73 -4 190 -38 57 -90 145 -116 197 l-48 93 -53 7
c-100 12 -264 -17 -293 -52 -22 -27 -16 -85 14 -127 28 -42 43 -108 32 -155
-15 -71 -99 -101 -179 -63 -117 57 -224 282 -234 492 -4 91 -2 112 16 152 37
82 121 112 180 62 34 -28 56 -78 66 -148 8 -53 31 -83 73 -93 39 -10 141 46
221 121 l64 60 -26 120 c-15 66 -32 176 -39 245 -14 140 -11 137 -108 139 -65
1 -74 -13 -74 -115 0 -73 -3 -85 -24 -108 -31 -33 -87 -35 -124 -6 -48 38 -70
103 -75 223 -5 124 7 198 45 268 74 139 212 84 183 -73 -17 -86 15 -115 107
-99 31 6 57 12 59 14 1 1 6 40 9 87 l7 85 -80 218 c-44 120 -82 220 -83 221
-2 2 -32 18 -66 35 -78 39 -113 40 -153 4 -25 -23 -33 -40 -40 -88 -10 -73
-24 -110 -56 -152 -72 -95 -194 -81 -254 27 -52 96 -30 316 50 495 65 145 175
283 252 317 15 7 28 15 28 19 0 5 -400 1107 -421 1161 -10 24 -14 26 -36 17
-55 -21 -122 -30 -214 -30 -373 0 -760 276 -1011 722 -30 53 -69 135 -88 183
-19 47 -37 86 -40 85 -3 0 -142 -50 -310 -111z m686 -3430 c93 -258 174 -468
180 -468 7 0 171 58 365 129 195 71 357 126 361 122 8 -8 308 -832 308 -847 0
-6 -164 -70 -364 -143 l-365 -133 10 -27 c52 -133 349 -955 347 -956 -2 -2
-247 -92 -546 -200 -314 -114 -547 -194 -552 -189 -5 5 -84 216 -176 469 -92
253 -170 470 -175 481 -7 21 -19 17 -371 -111 -200 -72 -366 -129 -370 -126
-9 8 -308 829 -308 846 0 6 64 35 143 64 78 29 241 88 363 133 l221 80 -179
490 c-98 270 -177 492 -176 493 3 3 384 143 878 323 210 76 215 78 226 58 6
-12 87 -231 180 -488z"/>
<path d="M12337 13860 c-49 -13 -113 -46 -158 -82 -35 -28 -105 -116 -98 -122
5 -4 663 -24 667 -21 7 6 -58 94 -96 131 -78 77 -217 118 -315 94z"/>
<path d="M11000 13621 c-157 -51 -279 -166 -339 -318 -11 -29 -19 -53 -16 -53
11 0 791 294 799 301 10 9 -105 65 -164 78 -71 17 -217 12 -280 -8z"/>
<path d="M12428 13361 c-30 -27 -33 -34 -33 -89 0 -51 4 -65 25 -87 37 -40 65
-48 106 -30 78 32 86 168 12 219 -34 24 -74 20 -110 -13z"/>
<path d="M11230 13132 c-46 -22 -75 -79 -65 -129 13 -72 99 -121 164 -93 97
40 107 166 18 220 -40 25 -72 25 -117 2z"/>
<path d="M18220 12652 c0 -40 19 -75 49 -91 16 -9 15 -3 -7 59 -14 39 -29 70
-33 70 -5 0 -9 -17 -9 -38z"/>
<path d="M7082 9657 c-17 -21 -842 -1317 -847 -1330 -3 -7 24 -28 67 -51 40
-21 74 -40 76 -41 2 -2 -18 -37 -43 -79 l-46 -76 77 -200 c42 -110 80 -200 84
-200 4 0 96 82 205 183 109 100 396 363 639 585 243 221 445 408 450 416 6 8
-34 125 -119 352 -82 216 -130 357 -133 389 l-4 50 -172 1 c-94 0 -183 3 -197
7 -17 4 -30 2 -37 -6z"/>
<path d="M18243 5485 c-36 -15 -58 -45 -68 -94 -7 -32 -6 -34 16 -28 13 4 27
7 30 7 6 0 19 18 73 103 18 26 18 27 0 27 -11 -1 -33 -7 -51 -15z"/>
</g>
</svg>
